# xmcd
#
# Track frame offsets: 
#        150
#        16922
#        38082
#        54468
#        70892
#        88438
#        106063
#        124631
#        142259
#        159695
#        177514
#        187958
#        201360
#
# Disc length: 2973 seconds
#
# Revision: 0
# Processed by: cddbd v1.5.2PL0 Copyright (c) Steve Scherf et al.
# Submitted via: ExactAudioCopyFreeDBPlugin 1.0
#
DISCID=ba0b9b0d
DTITLE=Rag And Bone - Rag And Bone
DYEAR=2007
DGENRE=Rock
TTITLE0=Mayfly Blues
TTITLE1=A Lost Part Of Me
TTITLE2=Kiss The Sad Boy
TTITLE3=According To Your Plans
TTITLE4=Now Forever
TTITLE5=Aiming For Love
TTITLE6=You Are Perfect
TTITLE7=Big Skies
TTITLE8=Rag And Bone Rag
TTITLE9=Fame Is Just The Last Way Out
TTITLE10=Flavious Mercurius
TTITLE11=Rambler Stomp
TTITLE12=The Hammer And The White Heat
EXTD=
EXTT0=
EXTT1=
EXTT2=
EXTT3=
EXTT4=
EXTT5=
EXTT6=
EXTT7=
EXTT8=
EXTT9=
EXTT10=
EXTT11=
EXTT12=
PLAYORDER=
